<svg width="920" height="420" viewBox="0 0 920 420" fill="none" xmlns="http://www.w3.org/2000/svg" role="img" aria-labelledby="title desc">
  <title id="title">Sizlon verification structure</title>
  <desc id="desc">A structured diagram showing input, fixed specification, verification, and recorded PASS, FAIL, or UNKNOWN output.</desc>
  <rect width="920" height="420" rx="28" fill="#F8FAFF"/>
  <rect x="24" y="24" width="872" height="372" rx="22" fill="#FFFFFF" stroke="#D9DEEA" stroke-width="2"/>
  <path d="M188 210H318" stroke="#183B7A" stroke-width="4" stroke-linecap="round"/>
  <path d="M308 198L320 210L308 222" stroke="#183B7A" stroke-width="4" stroke-linecap="round" stroke-linejoin="round"/>
  <path d="M458 210H588" stroke="#183B7A" stroke-width="4" stroke-linecap="round"/>
  <path d="M578 198L590 210L578 222" stroke="#183B7A" stroke-width="4" stroke-linecap="round" stroke-linejoin="round"/>
  <rect x="68" y="108" width="120" height="204" rx="18" fill="#FBFCFF" stroke="#D9DEEA" stroke-width="2"/>
  <text x="128" y="140" text-anchor="middle" fill="#183B7A" font-family="Arial, Helvetica, sans-serif" font-size="18" font-weight="700">INPUT</text>
  <rect x="92" y="164" width="72" height="18" rx="9" fill="#EEF3FF"/>
  <rect x="92" y="196" width="72" height="18" rx="9" fill="#EEF3FF"/>
  <rect x="92" y="228" width="72" height="18" rx="9" fill="#EEF3FF"/>
  <rect x="92" y="260" width="52" height="18" rx="9" fill="#EEF3FF"/>
  <text x="128" y="344" text-anchor="middle" fill="#5D6475" font-family="Arial, Helvetica, sans-serif" font-size="13">Document</text>
  <text x="128" y="362" text-anchor="middle" fill="#5D6475" font-family="Arial, Helvetica, sans-serif" font-size="13">Submission</text>
  <rect x="320" y="84" width="138" height="252" rx="20" fill="#183B7A"/>
  <text x="389" y="122" text-anchor="middle" fill="#FFFFFF" font-family="Arial, Helvetica, sans-serif" font-size="18" font-weight="700">SPECIFICATION</text>
  <text x="389" y="150" text-anchor="middle" fill="#D7E4FF" font-family="Arial, Helvetica, sans-serif" font-size="13">Fixed</text>
  <rect x="346" y="176" width="86" height="18" rx="9" fill="#2A549E"/>
  <rect x="346" y="208" width="86" height="18" rx="9" fill="#2A549E"/>
  <rect x="346" y="240" width="86" height="18" rx="9" fill="#2A549E"/>
  <rect x="346" y="272" width="62" height="18" rx="9" fill="#2A549E"/>
  <text x="389" y="360" text-anchor="middle" fill="#D7E4FF" font-family="Arial, Helvetica, sans-serif" font-size="13">Defined outside</text>
  <rect x="590" y="84" width="136" height="252" rx="20" fill="#FBFCFF" stroke="#D9DEEA" stroke-width="2"/>
  <text x="658" y="122" text-anchor="middle" fill="#183B7A" font-family="Arial, Helvetica, sans-serif" font-size="18" font-weight="700">VERIFICATION</text>
  <text x="658" y="150" text-anchor="middle" fill="#5D6475" font-family="Arial, Helvetica, sans-serif" font-size="13">Terminating</text>
  <rect x="618" y="176" width="80" height="18" rx="9" fill="#EEF3FF"/>
  <rect x="618" y="208" width="80" height="18" rx="9" fill="#EEF3FF"/>
  <rect x="618" y="240" width="80" height="18" rx="9" fill="#EEF3FF"/>
  <rect x="618" y="272" width="58" height="18" rx="9" fill="#EEF3FF"/>
  <text x="658" y="360" text-anchor="middle" fill="#5D6475" font-family="Arial, Helvetica, sans-serif" font-size="13">Rule execution only</text>
  <rect x="744" y="124" width="112" height="172" rx="18" fill="#FFFFFF" stroke="#D9DEEA" stroke-width="2"/>
  <text x="800" y="156" text-anchor="middle" fill="#183B7A" font-family="Arial, Helvetica, sans-serif" font-size="18" font-weight="700">RECORD</text>
  <rect x="768" y="182" width="64" height="24" rx="12" fill="#E8F2E7"/>
  <text x="800" y="199" text-anchor="middle" fill="#1F5D2F" font-family="Arial, Helvetica, sans-serif" font-size="12" font-weight="700">PASS</text>
  <rect x="768" y="216" width="64" height="24" rx="12" fill="#FDEBEC"/>
  <text x="800" y="233" text-anchor="middle" fill="#8A2332" font-family="Arial, Helvetica, sans-serif" font-size="12" font-weight="700">FAIL</text>
  <rect x="754" y="250" width="92" height="24" rx="12" fill="#EFF1F6"/>
  <text x="800" y="267" text-anchor="middle" fill="#475063" font-family="Arial, Helvetica, sans-serif" font-size="12" font-weight="700">UNKNOWN</text>
  <text x="800" y="316" text-anchor="middle" fill="#5D6475" font-family="Arial, Helvetica, sans-serif" font-size="13">Interpretation external</text>
</svg>
